<svg width="136" height="175" viewBox="0 0 136 175" fill="none" xmlns="http://www.w3.org/2000/svg">
<g clip-path="url(#clip0_1_70)">
<path opacity="0.5" d="M74.3576 173.583V141.821H0V115.23L80.2669 0H111.29V113.014H134.927V141.821H111.29V173.583H74.3576ZM74.3576 113.014V45.304H80.5131L27.5763 121.878V113.014H74.3576Z" fill="url(#paint0_linear_1_70)"/>
<mask id="mask0_1_70" style="mask-type:alpha" maskUnits="userSpaceOnUse" x="0" y="0" width="135" height="174">
<path d="M74.3576 173.583V141.821H0V115.23L80.2669 0H111.29V113.014H134.927V141.821H111.29V173.583H74.3576ZM74.3576 113.014V45.304H80.5131L27.5763 121.878V113.014H74.3576Z" fill="url(#paint1_linear_1_70)"/>
</mask>
<g mask="url(#mask0_1_70)">
<g style="mix-blend-mode:multiply">
<path d="M1560.67 146.88C1549.91 148.89 1538.87 151.71 1527.32 155.265C1507.99 161.214 1488.67 167.163 1469.34 168.503C1451.61 169.733 1431.4 163.77 1407.56 156.736C1377.49 147.863 1341.64 137.285 1297.69 137.285C1266.31 137.285 1239.39 144.479 1213.46 151.406C1174.31 161.868 1137.43 171.723 1090.87 155.265C1013.49 127.91 964.947 128.665 900.931 158.581C836.914 188.497 784.75 182.909 742.17 169.296C738.046 167.977 733.964 166.595 729.911 165.223C713.749 159.753 698.052 154.439 682.023 153.921C659.556 153.091 637.088 160.635 614.62 168.179C596.989 174.098 579.358 180.018 561.727 181.892C539.429 184.261 517.13 180.1 494.832 175.939C477.032 172.617 459.233 169.296 441.433 169.296C422.91 169.296 404.388 172.892 385.865 176.489C364.29 180.679 342.714 184.869 321.138 183.374C301.812 182.034 282.485 176.091 263.159 170.147C242.387 163.759 221.615 157.371 200.844 156.7C170.172 155.566 143.689 161.767 117.272 167.953C84.7866 175.559 52.3992 183.143 12.4383 177.038C-9.15735 173.739 -29.8044 168.408 -50.1766 163.148C-98.7739 150.599 -145.807 138.454 -200.421 155.265C-219.748 161.214 -239.074 167.163 -258.401 168.503C-279.977 170 -301.552 165.806 -323.128 161.613C-361.947 154.068 -393.191 153.795 -432.095 161.062C-454.393 165.226 -476.692 169.391 -498.99 167.02C-516.621 165.145 -534.252 159.22 -551.882 153.295C-600.334 137.011 -631.946 136.957 -679.433 154.413C-683.805 156.02 -688.345 157.817 -692.979 159.651C-709.593 166.228 -727.421 173.286 -743.097 173.793C-862.092 173.793 -862.056 176.312 -860.363 296.61C-860.134 312.86 -859.875 331.259 -859.875 352.091L1560.67 352.091V146.88Z" fill="#1D29CE"/>
</g>
<g style="mix-blend-mode:multiply">
<path d="M1857.54 146.88C1846.78 148.89 1835.74 151.71 1824.19 155.265C1804.86 161.214 1785.54 167.163 1766.21 168.503C1748.48 169.733 1728.27 163.77 1704.43 156.736C1674.36 147.863 1638.51 137.285 1594.56 137.285C1563.18 137.285 1536.26 144.479 1510.33 151.406C1471.18 161.868 1434.3 171.723 1387.74 155.265C1310.36 127.91 1261.82 128.665 1197.8 158.581C1133.78 188.497 1081.62 182.909 1039.04 169.296C1034.92 167.977 1030.83 166.595 1026.78 165.223C1010.62 159.753 994.922 154.439 978.893 153.921C956.425 153.091 933.958 160.635 911.49 168.179C893.859 174.098 876.228 180.018 858.597 181.892C836.299 184.261 814 180.1 791.702 175.939C773.902 172.617 756.103 169.296 738.303 169.296C719.78 169.296 701.258 172.892 682.735 176.489C661.16 180.679 639.584 184.869 618.008 183.374C598.682 182.034 579.355 176.091 560.028 170.147C539.257 163.759 518.485 157.371 497.714 156.7C467.041 155.566 440.559 161.767 414.141 167.953C381.656 175.559 349.269 183.143 309.308 177.038C287.713 173.739 267.065 168.408 246.693 163.148C198.096 150.599 151.063 138.454 96.4489 155.265C77.1222 161.214 57.7956 167.163 38.4689 168.503C16.8932 170 -4.6825 165.806 -26.2582 161.613C-65.0769 154.068 -96.321 153.795 -135.225 161.062C-157.524 165.226 -179.822 169.391 -202.121 167.02C-219.751 165.145 -237.382 159.22 -255.013 153.295C-303.464 137.011 -335.076 136.957 -382.563 154.413C-386.935 156.02 -391.475 157.817 -396.109 159.651C-412.723 166.228 -430.551 173.286 -446.227 173.793C-565.222 173.793 -565.186 176.312 -563.493 296.61C-563.264 312.86 -563.005 331.259 -563.005 352.091L1857.54 352.091V146.88Z" fill="#1D29CE"/>
</g>
<g style="mix-blend-mode:multiply">
<path d="M-1669.7 146.88C-1658.95 148.89 -1647.91 151.71 -1636.36 155.265C-1617.03 161.214 -1597.71 167.163 -1578.38 168.503C-1560.65 169.733 -1540.44 163.77 -1516.6 156.736C-1486.53 147.863 -1450.68 137.285 -1406.73 137.285C-1375.35 137.285 -1348.43 144.479 -1322.5 151.406C-1283.35 161.868 -1246.47 171.723 -1199.91 155.265C-1122.53 127.91 -1073.99 128.665 -1009.97 158.581C-945.953 188.497 -893.789 182.909 -851.209 169.296C-847.085 167.977 -843.003 166.595 -838.949 165.223C-822.788 159.753 -807.091 154.439 -791.062 153.921C-768.594 153.091 -746.126 160.635 -723.658 168.179C-706.027 174.098 -688.397 180.018 -670.766 181.892C-648.467 184.261 -626.169 180.1 -603.87 175.939C-586.071 172.617 -568.271 169.296 -550.471 169.296C-531.949 169.296 -513.426 172.892 -494.904 176.489C-473.328 180.679 -451.752 184.869 -430.177 183.374C-410.85 182.034 -391.524 176.091 -372.197 170.147C-351.425 163.759 -330.654 157.371 -309.882 156.7C-279.21 155.566 -252.728 161.767 -226.31 167.953C-193.825 175.559 -161.438 183.143 -121.477 177.038C-99.8811 173.739 -79.2341 168.408 -58.8618 163.148C-10.2645 150.599 36.7687 138.454 91.3826 155.265C110.709 161.214 130.036 167.163 149.362 168.503C170.938 170 192.514 165.806 214.09 161.613C252.908 154.068 284.152 153.795 323.056 161.062C345.355 165.226 367.653 169.391 389.952 167.02C407.583 165.145 425.213 159.22 442.844 153.295C491.296 137.011 522.907 136.957 570.394 154.413C574.766 156.02 579.306 157.817 583.94 159.651C600.555 166.228 618.382 173.286 634.059 173.793C753.053 173.793 753.018 176.312 751.324 296.61C751.095 312.86 750.836 331.259 750.836 352.091L-1669.7 352.091V146.88Z" fill="#1D29CE"/>
</g>
<g style="mix-blend-mode:multiply">
<path d="M-1814.62 146.88C-1803.87 148.89 -1792.83 151.71 -1781.28 155.265C-1761.95 161.214 -1742.62 167.163 -1723.3 168.503C-1705.56 169.733 -1685.36 163.77 -1661.52 156.736C-1631.44 147.863 -1595.6 137.285 -1551.65 137.285C-1520.26 137.285 -1493.34 144.479 -1467.42 151.406C-1428.26 161.868 -1391.38 171.723 -1344.83 155.265C-1267.44 127.91 -1218.9 128.665 -1154.89 158.581C-1090.87 188.497 -1038.71 182.909 -996.126 169.296C-992.002 167.977 -987.92 166.595 -983.866 165.223C-967.705 159.753 -952.008 154.439 -935.978 153.921C-913.511 153.091 -891.043 160.635 -868.576 168.179C-850.945 174.098 -833.314 180.018 -815.683 181.892C-793.384 184.261 -771.086 180.1 -748.787 175.939C-730.988 172.617 -713.188 169.296 -695.388 169.296C-676.866 169.296 -658.343 172.892 -639.821 176.489C-618.245 180.679 -596.669 184.869 -575.094 183.374C-555.767 182.034 -536.441 176.091 -517.114 170.147C-496.342 163.759 -475.571 157.371 -454.799 156.7C-424.127 155.566 -397.645 161.767 -371.227 167.953C-338.742 175.559 -306.355 183.143 -266.394 177.038C-244.798 173.739 -224.151 168.408 -203.779 163.148C-155.181 150.599 -108.148 138.454 -53.5344 155.265C-34.2078 161.214 -14.8812 167.163 4.4455 168.503C26.0212 170 47.5969 165.806 69.1726 161.613C107.991 154.068 139.235 153.795 178.139 161.062C200.438 165.226 222.736 169.391 245.035 167.02C262.666 165.145 280.296 159.22 297.927 153.295C346.379 137.011 377.99 136.957 425.477 154.413C429.849 156.02 434.389 157.817 439.023 159.651C455.638 166.228 473.465 173.286 489.142 173.793C608.136 173.793 608.101 176.312 606.407 296.61C606.178 312.86 605.919 331.259 605.919 352.091L-1814.62 352.091V146.88Z" fill="#1D29CE"/>
</g>
</g>
</g>
<defs>
<linearGradient id="paint0_linear_1_70" x1="62.5392" y1="152.586" x2="146.952" y2="-26.8708" gradientUnits="userSpaceOnUse">
<stop stop-color="#DFDFDF"/>
<stop offset="1" stop-color="#F4EBFF"/>
</linearGradient>
<linearGradient id="paint1_linear_1_70" x1="62.5402" y1="152.585" x2="63.0217" y2="82.2627" gradientUnits="userSpaceOnUse">
<stop stop-color="#B3B3B3"/>
<stop offset="1" stop-color="white"/>
</linearGradient>
<clipPath id="clip0_1_70">
<rect width="135.42" height="174.814" fill="white"/>
</clipPath>
</defs>
</svg>
