<svg width="139" height="24" viewBox="0 0 139 24" fill="none" xmlns="http://www.w3.org/2000/svg">
<path d="M12.2531 22.7906C11.6094 22.5344 10.9281 22.1469 10.2094 21.6281C9.49063 21.1156 8.71875 20.4656 7.89375 19.6781C6.90625 19.5719 6.04062 19.3969 5.29688 19.1531C4.55312 18.9156 3.94688 18.6188 3.47813 18.2625C2.90938 17.8125 2.40938 17.3156 1.97813 16.7719C1.54688 16.2281 1.19375 15.65 0.91875 15.0375C0.30625 13.6125 0 11.9094 0 9.92813C0 8.42188 0.19375 7.06563 0.58125 5.85938C0.975 4.64688 1.54688 3.6 2.29688 2.71875C2.65312 2.325 3.05 1.97187 3.4875 1.65937C3.93125 1.34687 4.40625 1.08125 4.9125 0.8625C5.425 0.64375 5.9625 0.478125 6.525 0.365624C7.09375 0.246875 7.68438 0.1875 8.29688 0.1875C9.53438 0.1875 10.6625 0.4125 11.6812 0.8625C12.7 1.3125 13.5688 1.93125 14.2875 2.71875C15.0375 3.6 15.6062 4.64375 15.9937 5.85C16.3875 7.05 16.5844 8.40312 16.5844 9.90938C16.5844 11.3844 16.3937 12.725 16.0125 13.9313C15.6313 15.1313 15.0438 16.2156 14.25 17.1844C13.9 17.5781 13.45 17.95 12.9 18.3C12.3562 18.65 11.725 18.9594 11.0063 19.2281C12.5563 20.5531 14.1969 21.2156 15.9281 21.2156C16.6031 21.2156 17.55 20.9969 18.7688 20.5594V22.95C17.7563 23.2938 16.7906 23.4656 15.8719 23.4656C14.5844 23.4656 13.3781 23.2406 12.2531 22.7906ZM8.29688 17.6438C9.65313 17.6438 10.7844 16.9469 11.6906 15.5531C12.5656 14.1969 13.0031 12.3188 13.0031 9.91875C13.0031 7.525 12.5656 5.65 11.6906 4.29375C10.7844 2.89375 9.65313 2.19375 8.29688 2.19375C6.93438 2.19375 5.8 2.89375 4.89375 4.29375C4.01875 5.65 3.58125 7.525 3.58125 9.91875C3.58125 12.3188 4.01875 14.1969 4.89375 15.5531C5.8 16.9469 6.93438 17.6438 8.29688 17.6438Z" fill="#1443C3"/>
<path d="M26.625 5.83125H29.9344V19.1063H26.625V18.0375C26.5625 18.0938 26.4938 18.15 26.4188 18.2063C26.35 18.2625 26.2781 18.3219 26.2031 18.3844C25.8594 18.6656 25.3594 18.9344 24.7031 19.1906C24.2344 19.3781 23.6656 19.4719 22.9969 19.4719C22.2969 19.4719 21.6562 19.3813 21.075 19.2C20.4938 19.0188 19.9875 18.7625 19.5562 18.4312C19.075 18.025 18.7094 17.4688 18.4594 16.7625C18.2094 16.0563 18.0844 15.2094 18.0844 14.2219V5.83125H21.3937V13.3031C21.3937 15.2781 21.575 16.4094 21.9375 16.6969C22.425 17.0844 22.9375 17.2781 23.475 17.2781C23.6938 17.2781 23.9375 17.2313 24.2063 17.1375C24.475 17.0375 24.7406 16.9031 25.0031 16.7344C25.1969 16.5969 25.3937 16.4 25.5938 16.1438C25.7938 15.8875 25.9875 15.5656 26.175 15.1781C26.475 14.5719 26.625 13.6313 26.625 12.3563V5.83125Z" fill="#1443C3"/>
<path d="M32.2781 5.83125H35.5781V19.1063H32.2781V5.83125ZM32.2781 3.1125V0.73125H35.5781V3.1125H32.2781Z" fill="#1443C3"/>
<path d="M46.0781 15.5531H49.3969V15.7688C49.3969 16.0312 49.325 16.3156 49.1813 16.6219C49.0438 16.9281 48.8563 17.25 48.6188 17.5875C48.425 17.8312 48.1562 18.075 47.8125 18.3188C47.475 18.5625 47.0906 18.7844 46.6594 18.9844C45.9156 19.3094 44.9813 19.4719 43.8563 19.4719C42.775 19.4719 41.8219 19.3094 40.9969 18.9844C40.1719 18.6594 39.4938 18.1969 38.9625 17.5969C38.425 16.9406 38.0062 16.1781 37.7062 15.3094C37.4125 14.4406 37.2656 13.4906 37.2656 12.4594C37.2656 11.4344 37.4125 10.4906 37.7062 9.62813C38.0062 8.75937 38.425 7.99688 38.9625 7.34063C39.4938 6.74062 40.1719 6.27812 40.9969 5.95312C41.8219 5.62813 42.775 5.46563 43.8563 5.46563C44.9875 5.46563 45.9469 5.63125 46.7344 5.9625C47.5281 6.29375 48.15 6.73125 48.6 7.275C48.85 7.59375 49.0438 7.91563 49.1813 8.24063C49.325 8.56563 49.3969 8.875 49.3969 9.16875V9.375H46.0781V9.16875C46.1031 8.64375 45.9594 8.25313 45.6469 7.99688C45.2344 7.64688 44.675 7.47188 43.9688 7.47188C43.125 7.47188 42.3438 7.86563 41.625 8.65313C40.9875 9.32812 40.6688 10.5969 40.6688 12.4594C40.6688 14.3281 40.9875 15.6031 41.625 16.2844C42.3438 17.0719 43.125 17.4656 43.9688 17.4656C44.3125 17.4656 44.625 17.4219 44.9062 17.3344C45.1875 17.2406 45.4281 17.1125 45.6281 16.95C45.7719 16.825 45.8812 16.6625 45.9562 16.4625C46.0375 16.2625 46.0781 16.0312 46.0781 15.7688V15.5531Z" fill="#1443C3"/>
<path d="M54.375 19.1063H50.9813V0H54.375V11.0344C55.1937 10.1594 56.0062 9.29375 56.8125 8.4375C57.6188 7.575 58.4281 6.70625 59.2406 5.83125H62.7094L56.9625 12.0094C57.9438 13.1719 58.9375 14.3562 59.9437 15.5625C60.95 16.7625 61.9406 17.9438 62.9156 19.1063H59.2219L54.375 13.3875V19.1063Z" fill="#1443C3"/>
<path d="M72.3328 19.1063V0.73125H75.6891L83.6953 13.1906V0.73125H87.0047V19.1063H83.6672L75.6328 6.57188V19.1063H72.3328Z" fill="#1443C3"/>
<path d="M95.4609 19.4719C94.9984 19.4719 94.5453 19.4281 94.1016 19.3406C93.6578 19.2594 93.2328 19.1437 92.8266 18.9937C92.4203 18.8375 92.0359 18.65 91.6734 18.4312C91.3172 18.2125 90.9891 17.9688 90.6891 17.7C90.0703 17.0688 89.5859 16.3094 89.2359 15.4219C88.8859 14.5281 88.7109 13.5406 88.7109 12.4594C88.7109 11.3844 88.8859 10.4031 89.2359 9.51562C89.5859 8.62188 90.0703 7.8625 90.6891 7.2375C91.2953 6.6875 92.0047 6.25625 92.8172 5.94375C93.6359 5.625 94.5172 5.46563 95.4609 5.46563C96.4172 5.46563 97.2984 5.61875 98.1047 5.925C98.9109 6.23125 99.6172 6.66875 100.223 7.2375C100.842 7.8625 101.327 8.62188 101.677 9.51562C102.027 10.4031 102.202 11.3844 102.202 12.4594C102.202 14.6781 101.542 16.425 100.223 17.7C98.9922 18.8813 97.4047 19.4719 95.4609 19.4719ZM95.4609 17.4656C96.3484 17.4656 97.1422 17.0125 97.8422 16.1063C98.4859 15.2688 98.8078 14.0531 98.8078 12.4594C98.8078 10.8719 98.4859 9.6625 97.8422 8.83125C97.1422 7.925 96.3484 7.47188 95.4609 7.47188C95.0297 7.47188 94.6047 7.59688 94.1859 7.84688C93.7734 8.09062 93.3984 8.41875 93.0609 8.83125H93.0703C92.7703 9.24375 92.5359 9.75937 92.3672 10.3781C92.1984 10.9969 92.1141 11.6906 92.1141 12.4594C92.1141 13.2406 92.1953 13.9375 92.3578 14.55C92.5266 15.1625 92.7641 15.6813 93.0703 16.1063H93.0609C93.3984 16.5188 93.7734 16.85 94.1859 17.1C94.6047 17.3438 95.0297 17.4656 95.4609 17.4656Z" fill="#1443C3"/>
<path d="M113.011 18.975C112.336 19.1438 111.752 19.2688 111.258 19.35C110.764 19.4312 110.348 19.4719 110.011 19.4719C109.53 19.4719 109.073 19.4281 108.642 19.3406C108.211 19.2594 107.814 19.1344 107.452 18.9656C107.095 18.7969 106.777 18.5906 106.495 18.3469C106.22 18.1031 105.995 17.8219 105.82 17.5031C105.633 17.1406 105.489 16.7094 105.389 16.2094C105.295 15.7094 105.248 15.1281 105.248 14.4656V7.82812H102.98V5.83125H105.248V2.7375H108.558V5.83125H112.373V7.82812H108.558V13.8469C108.558 15.0344 108.633 15.825 108.783 16.2188H108.773C108.88 16.4562 108.983 16.6594 109.083 16.8281C109.189 16.9906 109.292 17.1 109.392 17.1562C109.573 17.2563 109.758 17.3344 109.945 17.3906C110.133 17.4406 110.317 17.4656 110.498 17.4656C110.823 17.4656 111.661 17.2563 113.011 16.8375V18.975Z" fill="#1443C3"/>
<path d="M123.07 15.5531H126.38V15.7688C126.38 16.2688 126.111 16.8781 125.573 17.5969C125.155 18.1281 124.467 18.5938 123.511 18.9937C122.742 19.3125 121.798 19.4719 120.68 19.4719C118.423 19.4719 116.742 18.8156 115.636 17.5031C114.467 16.0969 113.883 14.4469 113.883 12.5531C113.883 10.6094 114.502 8.91875 115.739 7.48125C116.914 6.1375 118.53 5.46563 120.586 5.46563C121.136 5.46563 121.664 5.52813 122.17 5.65313C122.677 5.77187 123.148 5.94687 123.586 6.17812C124.03 6.40312 124.43 6.68438 124.786 7.02188C125.148 7.35938 125.452 7.74375 125.695 8.175C125.939 8.66875 126.127 9.24063 126.258 9.89062C126.395 10.5406 126.464 11.25 126.464 12.0188V12.8344H117.164C117.177 13.5219 117.267 14.1469 117.436 14.7094C117.605 15.2719 117.848 15.75 118.167 16.1438C118.536 16.5625 118.948 16.8875 119.405 17.1187C119.861 17.35 120.348 17.4656 120.867 17.4656C121.223 17.4656 121.548 17.4188 121.842 17.325C122.136 17.2313 122.389 17.1031 122.602 16.9406C122.745 16.8031 122.858 16.6344 122.939 16.4344C123.027 16.2344 123.07 16.0125 123.07 15.7688V15.5531ZM123.248 11.0063V10.8469C123.217 10.3844 123.142 9.95 123.023 9.54375C122.905 9.13125 122.727 8.77188 122.489 8.46563C122.258 8.15938 121.964 7.91875 121.608 7.74375C121.258 7.5625 120.839 7.47188 120.352 7.47188C119.945 7.47188 119.573 7.575 119.236 7.78125C118.898 7.9875 118.598 8.25625 118.336 8.5875C118.08 8.91875 117.864 9.29688 117.689 9.72188C117.52 10.1406 117.398 10.5688 117.323 11.0063H123.248Z" fill="#1443C3"/>
<path d="M127.542 15.4594H130.842V15.6C130.842 16.225 130.992 16.6719 131.292 16.9406V16.9312C131.723 17.2875 132.327 17.4656 133.102 17.4656C133.802 17.4656 134.414 17.2531 134.939 16.8281C135.358 16.5031 135.567 16.0125 135.567 15.3563C135.567 14.525 135.152 13.9844 134.32 13.7344L133.205 13.3969L132.464 13.1625C132.208 13.0875 131.952 13.0094 131.695 12.9281C131.445 12.8469 131.192 12.7688 130.936 12.6938C128.961 11.9813 127.973 10.9 127.973 9.45C127.973 8.96875 128.092 8.49687 128.33 8.03438C128.573 7.56563 128.93 7.10938 129.398 6.66563C129.83 6.29063 130.395 5.99688 131.095 5.78437C131.795 5.57188 132.602 5.46563 133.514 5.46563C135.383 5.46563 136.67 5.80938 137.377 6.49688C138.177 7.27813 138.577 8.04062 138.577 8.78438V8.925H135.258V8.78438C135.258 8.37187 135.089 8.05 134.752 7.81875C134.42 7.5875 133.97 7.47188 133.402 7.47188C133.077 7.47188 132.77 7.51875 132.483 7.6125C132.202 7.7 131.952 7.82812 131.733 7.99688H131.742C131.417 8.25313 131.255 8.675 131.255 9.2625C131.255 9.475 131.283 9.6625 131.339 9.825C131.395 9.98125 131.486 10.1219 131.611 10.2469C131.736 10.3719 131.895 10.4844 132.089 10.5844C132.289 10.6781 132.53 10.7656 132.811 10.8469H132.802L133.852 11.1375L134.639 11.3625C135.17 11.5125 135.617 11.6469 135.98 11.7656C136.342 11.8781 136.58 11.9594 136.692 12.0094C136.892 12.1094 137.061 12.2 137.198 12.2812C137.342 12.3625 137.467 12.4375 137.573 12.5063C138.03 12.8563 138.364 13.2344 138.577 13.6406C138.789 14.0469 138.895 14.4969 138.895 14.9906C138.895 16.1594 138.395 17.2219 137.395 18.1781C136.483 19.0406 135.058 19.4719 133.12 19.4719C132.502 19.4719 131.942 19.4281 131.442 19.3406C130.948 19.2594 130.502 19.1406 130.102 18.9844C129.708 18.8219 129.361 18.6281 129.061 18.4031C128.761 18.1719 128.502 17.9125 128.283 17.625C127.789 16.9625 127.542 16.2875 127.542 15.6V15.4594Z" fill="#1443C3"/>
</svg>
